<?xml version="1.0" encoding="UTF-8" standalone="no"?>
<svg
   xmlns:dc="http://purl.org/dc/elements/1.1/"
   xmlns:cc="http://creativecommons.org/ns#"
   xmlns:rdf="http://www.w3.org/1999/02/22-rdf-syntax-ns#"
   xmlns:svg="http://www.w3.org/2000/svg"
   xmlns="http://www.w3.org/2000/svg"
   id="svg3715"
   version="1.1"
   viewBox="0 0 32.572323 8.7820501"
   height="8.7820501mm"
   width="32.572323mm">
  <defs
     id="defs3709" />
  <metadata
     id="metadata3712">
    <rdf:RDF>
      <cc:Work
         rdf:about="">
        <dc:format>image/svg+xml</dc:format>
        <dc:type
           rdf:resource="http://purl.org/dc/dcmitype/StillImage" />
        <dc:title></dc:title>
      </cc:Work>
    </rdf:RDF>
  </metadata>
  <g
     transform="translate(34.429016,61.932691)"
     id="layer1">
    <g
       id="g3666"
       transform="matrix(0.35277777,0,0,-0.35277777,-125.2767,70.148364)">
      <path
         id="path118"
         style="fill:#393536;fill-opacity:1;fill-rule:nonzero;stroke:none;stroke-width:0.1"
         d="m 259.629,349.707 c -0.097,-0.05 -0.22,-0.095 -0.369,-0.136 -0.15,-0.041 -0.332,-0.062 -0.546,-0.062 -0.188,0 -0.355,0.029 -0.501,0.086 -0.148,0.057 -0.272,0.14 -0.374,0.249 -0.104,0.108 -0.182,0.238 -0.235,0.392 -0.055,0.152 -0.083,0.323 -0.083,0.514 0,0.246 0.042,0.486 0.124,0.719 0.082,0.234 0.201,0.441 0.356,0.623 0.155,0.182 0.345,0.328 0.568,0.438 0.223,0.11 0.475,0.165 0.756,0.165 0.186,0 0.346,-0.021 0.483,-0.062 0.136,-0.041 0.255,-0.09 0.358,-0.149 l -0.211,-0.445 c -0.094,0.056 -0.194,0.099 -0.302,0.13 -0.107,0.031 -0.227,0.046 -0.363,0.046 -0.185,0 -0.351,-0.041 -0.497,-0.123 -0.147,-0.082 -0.272,-0.19 -0.376,-0.323 -0.104,-0.134 -0.184,-0.285 -0.237,-0.456 -0.055,-0.17 -0.082,-0.343 -0.082,-0.519 0,-0.273 0.059,-0.475 0.178,-0.605 0.12,-0.13 0.293,-0.196 0.522,-0.196 0.176,0 0.325,0.02 0.448,0.06 0.124,0.039 0.23,0.079 0.317,0.121 l 0.066,-0.467" />
      <path
         id="path120"
         style="fill:#393536;fill-opacity:1;fill-rule:nonzero;stroke:none;stroke-width:0.1"
         d="m 262.309,352.215 c -0.167,0 -0.319,-0.042 -0.455,-0.125 -0.137,-0.084 -0.253,-0.193 -0.35,-0.328 -0.097,-0.135 -0.173,-0.289 -0.227,-0.46 -0.054,-0.172 -0.082,-0.345 -0.082,-0.521 0,-0.241 0.052,-0.433 0.155,-0.576 0.102,-0.144 0.266,-0.216 0.493,-0.216 0.167,0 0.319,0.042 0.457,0.125 0.138,0.084 0.256,0.193 0.352,0.328 0.097,0.135 0.172,0.288 0.227,0.46 0.054,0.171 0.081,0.345 0.081,0.521 0,0.241 -0.052,0.433 -0.156,0.577 -0.104,0.143 -0.269,0.215 -0.495,0.215 z m -0.524,-2.706 c -0.17,0 -0.326,0.027 -0.469,0.082 -0.141,0.054 -0.265,0.132 -0.369,0.235 -0.104,0.103 -0.184,0.23 -0.242,0.383 -0.058,0.152 -0.086,0.327 -0.086,0.523 0,0.235 0.038,0.47 0.114,0.704 0.077,0.235 0.189,0.445 0.337,0.632 0.149,0.186 0.331,0.337 0.548,0.453 0.217,0.116 0.467,0.174 0.748,0.174 0.17,0 0.327,-0.027 0.471,-0.082 0.143,-0.054 0.267,-0.133 0.369,-0.235 0.104,-0.103 0.183,-0.23 0.24,-0.383 0.058,-0.152 0.086,-0.327 0.086,-0.523 0,-0.235 -0.038,-0.47 -0.114,-0.704 -0.076,-0.235 -0.189,-0.446 -0.335,-0.632 -0.146,-0.186 -0.329,-0.337 -0.548,-0.453 -0.218,-0.115 -0.468,-0.174 -0.75,-0.174" />
      <path
         id="path122"
         style="fill:#393536;fill-opacity:1;fill-rule:nonzero;stroke:none;stroke-width:0.1"
         d="m 265.643,352.625 c 0.026,-0.104 0.057,-0.236 0.091,-0.399 0.035,-0.162 0.069,-0.336 0.103,-0.521 0.034,-0.185 0.068,-0.371 0.102,-0.559 0.035,-0.188 0.065,-0.358 0.091,-0.51 0.101,0.155 0.212,0.325 0.334,0.51 0.122,0.184 0.244,0.368 0.366,0.55 0.124,0.182 0.241,0.354 0.354,0.517 0.113,0.163 0.212,0.3 0.294,0.412 h 0.518 c -0.023,-0.223 -0.051,-0.461 -0.083,-0.713 -0.033,-0.253 -0.07,-0.51 -0.113,-0.775 -0.042,-0.264 -0.087,-0.528 -0.134,-0.794 -0.046,-0.265 -0.094,-0.521 -0.141,-0.768 h -0.55 c 0.077,0.355 0.15,0.72 0.222,1.093 0.07,0.375 0.135,0.745 0.194,1.112 -0.05,-0.071 -0.107,-0.156 -0.172,-0.256 -0.064,-0.099 -0.134,-0.204 -0.207,-0.314 -0.073,-0.11 -0.148,-0.224 -0.224,-0.341 -0.078,-0.117 -0.152,-0.231 -0.223,-0.341 -0.072,-0.11 -0.139,-0.212 -0.201,-0.306 -0.062,-0.094 -0.115,-0.175 -0.159,-0.242 h -0.426 c -0.015,0.097 -0.035,0.225 -0.063,0.383 -0.026,0.158 -0.055,0.325 -0.088,0.5 -0.033,0.174 -0.064,0.344 -0.095,0.51 -0.031,0.165 -0.058,0.302 -0.082,0.411 -0.12,-0.366 -0.232,-0.739 -0.335,-1.116 -0.105,-0.377 -0.203,-0.741 -0.296,-1.093 h -0.546 c 0.07,0.253 0.145,0.513 0.224,0.784 0.08,0.27 0.161,0.537 0.245,0.803 0.083,0.265 0.166,0.522 0.248,0.772 0.082,0.249 0.161,0.479 0.238,0.691 h 0.514" />
      <path
         id="path124"
         style="fill:#393536;fill-opacity:1;fill-rule:nonzero;stroke:none;stroke-width:0.1"
         d="m 269.99,352.625 c 0.027,-0.104 0.058,-0.236 0.092,-0.399 0.034,-0.162 0.068,-0.336 0.103,-0.521 0.034,-0.185 0.068,-0.371 0.102,-0.559 0.034,-0.188 0.065,-0.358 0.091,-0.51 0.101,0.155 0.212,0.325 0.334,0.51 0.122,0.184 0.244,0.368 0.366,0.55 0.123,0.182 0.24,0.354 0.354,0.517 0.113,0.163 0.212,0.3 0.294,0.412 h 0.518 c -0.023,-0.223 -0.052,-0.461 -0.084,-0.713 -0.032,-0.253 -0.069,-0.51 -0.112,-0.775 -0.042,-0.264 -0.087,-0.528 -0.134,-0.794 -0.047,-0.265 -0.095,-0.521 -0.142,-0.768 h -0.549 c 0.077,0.355 0.15,0.72 0.221,1.093 0.071,0.375 0.136,0.745 0.195,1.112 -0.05,-0.071 -0.108,-0.156 -0.172,-0.256 -0.065,-0.099 -0.134,-0.204 -0.207,-0.314 -0.073,-0.11 -0.149,-0.224 -0.225,-0.341 -0.077,-0.117 -0.151,-0.231 -0.222,-0.341 -0.073,-0.11 -0.139,-0.212 -0.202,-0.306 -0.061,-0.094 -0.114,-0.175 -0.158,-0.242 h -0.427 c -0.014,0.097 -0.035,0.225 -0.062,0.383 -0.026,0.158 -0.056,0.325 -0.088,0.5 -0.033,0.174 -0.064,0.344 -0.096,0.51 -0.03,0.165 -0.057,0.302 -0.082,0.411 -0.119,-0.366 -0.231,-0.739 -0.335,-1.116 -0.104,-0.377 -0.203,-0.741 -0.296,-1.093 h -0.546 c 0.071,0.253 0.146,0.513 0.225,0.784 0.079,0.27 0.16,0.537 0.244,0.803 0.083,0.265 0.166,0.522 0.248,0.772 0.082,0.249 0.161,0.479 0.239,0.691 h 0.513" />
      <path
         id="path126"
         style="fill:#393536;fill-opacity:1;fill-rule:nonzero;stroke:none;stroke-width:0.1"
         d="m 275.505,350.697 c -0.044,-0.188 -0.1,-0.355 -0.168,-0.501 -0.067,-0.147 -0.154,-0.271 -0.262,-0.372 -0.106,-0.101 -0.237,-0.179 -0.391,-0.233 -0.154,-0.055 -0.339,-0.082 -0.557,-0.082 -0.17,0 -0.315,0.023 -0.438,0.069 -0.122,0.045 -0.22,0.107 -0.296,0.186 -0.077,0.08 -0.133,0.174 -0.169,0.284 -0.037,0.11 -0.056,0.23 -0.056,0.359 l 0.016,0.224 0.045,0.238 0.418,1.756 h 0.56 l -0.433,-1.818 -0.038,-0.174 -0.013,-0.174 0.024,-0.182 0.081,-0.148 0.15,-0.098 c 0.061,-0.025 0.137,-0.038 0.228,-0.038 0.214,0 0.379,0.063 0.493,0.189 0.114,0.127 0.2,0.316 0.26,0.568 l 0.449,1.875 h 0.559 l -0.462,-1.928" />
      <path
         id="path128"
         style="fill:#393536;fill-opacity:1;fill-rule:nonzero;stroke:none;stroke-width:0.1"
         d="m 278.486,349.575 c -0.055,0.17 -0.119,0.354 -0.19,0.55 -0.072,0.197 -0.149,0.393 -0.229,0.59 -0.08,0.196 -0.164,0.387 -0.25,0.574 -0.087,0.186 -0.173,0.357 -0.261,0.513 l -0.534,-2.227 h -0.545 l 0.73,3.05 h 0.445 c 0.082,-0.133 0.168,-0.284 0.257,-0.454 0.09,-0.17 0.177,-0.348 0.262,-0.534 0.085,-0.187 0.167,-0.374 0.246,-0.561 0.079,-0.188 0.147,-0.365 0.206,-0.533 l 0.489,2.082 h 0.55 l -0.729,-3.05 h -0.447" />
      <path
         id="path130"
         style="fill:#393536;fill-opacity:1;fill-rule:nonzero;stroke:none;stroke-width:0.1"
         d="m 280.924,352.625 h 0.555 l -0.731,-3.05 h -0.555 l 0.731,3.05" />
      <path
         id="path132"
         style="fill:#393536;fill-opacity:1;fill-rule:nonzero;stroke:none;stroke-width:0.1"
         d="m 284.304,349.707 c -0.097,-0.05 -0.22,-0.095 -0.369,-0.136 -0.15,-0.041 -0.332,-0.062 -0.546,-0.062 -0.188,0 -0.355,0.029 -0.501,0.086 -0.148,0.057 -0.272,0.14 -0.374,0.249 -0.104,0.108 -0.182,0.238 -0.236,0.392 -0.054,0.152 -0.082,0.323 -0.082,0.514 0,0.246 0.041,0.486 0.123,0.719 0.082,0.234 0.202,0.441 0.357,0.623 0.155,0.182 0.345,0.328 0.568,0.438 0.223,0.11 0.475,0.165 0.756,0.165 0.186,0 0.346,-0.021 0.482,-0.062 0.137,-0.041 0.256,-0.09 0.359,-0.149 l -0.211,-0.445 c -0.094,0.056 -0.194,0.099 -0.302,0.13 -0.107,0.031 -0.227,0.046 -0.363,0.046 -0.185,0 -0.351,-0.041 -0.497,-0.123 -0.147,-0.082 -0.272,-0.19 -0.376,-0.323 -0.105,-0.134 -0.184,-0.285 -0.238,-0.456 -0.054,-0.17 -0.082,-0.343 -0.082,-0.519 0,-0.273 0.06,-0.475 0.179,-0.605 0.119,-0.13 0.293,-0.196 0.522,-0.196 0.175,0 0.325,0.02 0.448,0.06 0.124,0.039 0.229,0.079 0.317,0.121 l 0.066,-0.467" />
      <path
         id="path134"
         style="fill:#393536;fill-opacity:1;fill-rule:nonzero;stroke:none;stroke-width:0.1"
         d="m 287.038,352.043 c -0.112,-0.173 -0.236,-0.368 -0.373,-0.583 -0.136,-0.215 -0.28,-0.456 -0.433,-0.723 h 0.956 c -0.016,0.208 -0.038,0.422 -0.063,0.64 -0.025,0.219 -0.055,0.441 -0.087,0.666 z m 0.257,-2.468 c -0.007,0.124 -0.016,0.246 -0.027,0.368 -0.011,0.122 -0.023,0.239 -0.035,0.354 h -1.244 c -0.063,-0.115 -0.129,-0.233 -0.195,-0.351 -0.065,-0.119 -0.133,-0.242 -0.201,-0.371 h -0.595 c 0.18,0.311 0.351,0.604 0.514,0.88 0.163,0.276 0.321,0.539 0.475,0.788 0.155,0.249 0.307,0.487 0.458,0.715 0.152,0.227 0.304,0.449 0.456,0.667 h 0.516 c 0.094,-0.437 0.175,-0.915 0.243,-1.432 0.068,-0.519 0.132,-1.058 0.194,-1.618 h -0.559" />
      <path
         id="path136"
         style="fill:#393536;fill-opacity:1;fill-rule:nonzero;stroke:none;stroke-width:0.1"
         d="m 291.181,352.625 -0.116,-0.467 h -0.906 l -0.62,-2.583 h -0.555 l 0.621,2.583 h -0.907 l 0.111,0.467 h 2.372" />
      <path
         id="path138"
         style="fill:#393536;fill-opacity:1;fill-rule:nonzero;stroke:none;stroke-width:0.1"
         d="m 291.431,349.575 0.73,3.05 h 1.893 l -0.111,-0.462 h -1.342 l -0.183,-0.766 h 1.191 l -0.11,-0.454 h -1.184 l -0.219,-0.906 h 1.443 l -0.11,-0.462 h -1.998" />
      <path
         id="path140"
         style="fill:#393536;fill-opacity:1;fill-rule:nonzero;stroke:none;stroke-width:0.1"
         d="m 297.083,351.379 h 0.423 c 0.092,0 0.18,0.009 0.265,0.027 l 0.222,0.085 0.152,0.148 0.057,0.216 c 0,0.134 -0.051,0.227 -0.151,0.277 -0.102,0.05 -0.238,0.075 -0.407,0.075 l -0.203,-0.007 -0.163,-0.015 z m -0.103,-0.426 -0.227,-0.938 0.163,-0.015 0.225,-0.007 c 0.096,0 0.198,0.007 0.303,0.022 0.107,0.015 0.202,0.042 0.287,0.083 l 0.213,0.177 c 0.058,0.076 0.086,0.174 0.086,0.295 0,0.111 -0.042,0.203 -0.127,0.275 -0.085,0.071 -0.225,0.108 -0.422,0.108 z m 0.047,-1.413 c -0.149,0 -0.307,0.006 -0.472,0.02 -0.166,0.013 -0.314,0.034 -0.443,0.063 l 0.708,2.953 c 0.133,0.029 0.272,0.05 0.418,0.062 0.148,0.011 0.295,0.017 0.445,0.017 0.124,0 0.249,-0.009 0.377,-0.026 0.127,-0.018 0.242,-0.052 0.344,-0.104 0.103,-0.051 0.188,-0.121 0.253,-0.211 0.067,-0.089 0.1,-0.205 0.1,-0.345 0,-0.155 -0.044,-0.303 -0.13,-0.44 -0.087,-0.138 -0.232,-0.25 -0.438,-0.335 0.129,-0.052 0.229,-0.129 0.299,-0.228 0.071,-0.1 0.106,-0.216 0.106,-0.348 0,-0.343 -0.134,-0.609 -0.403,-0.796 -0.268,-0.188 -0.656,-0.282 -1.164,-0.282" />
      <path
         id="path142"
         style="fill:#393536;fill-opacity:1;fill-rule:nonzero;stroke:none;stroke-width:0.1"
         d="m 299.442,349.575 0.731,3.05 h 1.892 l -0.11,-0.462 h -1.343 l -0.182,-0.766 h 1.191 l -0.11,-0.454 h -1.184 l -0.22,-0.906 h 1.444 l -0.111,-0.462 h -1.998" />
      <path
         id="path144"
         style="fill:#393536;fill-opacity:1;fill-rule:nonzero;stroke:none;stroke-width:0.1"
         d="m 303.852,351.278 c 0.181,0.22 0.358,0.441 0.53,0.662 0.172,0.222 0.332,0.45 0.481,0.685 h 0.625 c -0.114,-0.162 -0.228,-0.319 -0.342,-0.471 -0.115,-0.153 -0.232,-0.305 -0.35,-0.456 -0.119,-0.151 -0.242,-0.301 -0.368,-0.451 -0.126,-0.149 -0.257,-0.302 -0.392,-0.458 l -0.29,-1.214 h -0.555 l 0.291,1.214 c -0.121,0.309 -0.229,0.614 -0.328,0.918 -0.098,0.304 -0.19,0.609 -0.275,0.918 h 0.59 c 0.05,-0.227 0.107,-0.452 0.172,-0.678 0.064,-0.226 0.134,-0.449 0.211,-0.669" />
      <path
         id="path146"
         style="fill:#393536;fill-opacity:1;fill-rule:nonzero;stroke:none;stroke-width:0.1"
         d="m 307.465,352.215 c -0.167,0 -0.319,-0.042 -0.455,-0.125 -0.137,-0.084 -0.253,-0.193 -0.35,-0.328 -0.097,-0.135 -0.173,-0.289 -0.226,-0.46 -0.055,-0.172 -0.082,-0.345 -0.082,-0.521 0,-0.241 0.051,-0.433 0.154,-0.576 0.102,-0.144 0.266,-0.216 0.493,-0.216 0.167,0 0.319,0.042 0.457,0.125 0.138,0.084 0.256,0.193 0.353,0.328 0.096,0.135 0.171,0.288 0.226,0.46 0.054,0.171 0.081,0.345 0.081,0.521 0,0.241 -0.052,0.433 -0.156,0.577 -0.104,0.143 -0.269,0.215 -0.495,0.215 z m -0.524,-2.706 c -0.17,0 -0.326,0.027 -0.468,0.082 -0.142,0.054 -0.266,0.132 -0.369,0.235 -0.105,0.103 -0.185,0.23 -0.243,0.383 -0.057,0.152 -0.086,0.327 -0.086,0.523 0,0.235 0.038,0.47 0.115,0.704 0.076,0.235 0.188,0.445 0.337,0.632 0.148,0.186 0.331,0.337 0.547,0.453 0.217,0.116 0.467,0.174 0.748,0.174 0.17,0 0.328,-0.027 0.471,-0.082 0.144,-0.054 0.267,-0.133 0.369,-0.235 0.104,-0.103 0.183,-0.23 0.241,-0.383 0.057,-0.152 0.085,-0.327 0.085,-0.523 0,-0.235 -0.038,-0.47 -0.114,-0.704 -0.076,-0.235 -0.188,-0.446 -0.335,-0.632 -0.146,-0.186 -0.329,-0.337 -0.548,-0.453 -0.217,-0.115 -0.467,-0.174 -0.75,-0.174" />
      <path
         id="path148"
         style="fill:#393536;fill-opacity:1;fill-rule:nonzero;stroke:none;stroke-width:0.1"
         d="m 311.414,349.575 c -0.056,0.17 -0.119,0.354 -0.19,0.55 -0.073,0.197 -0.149,0.393 -0.229,0.59 -0.08,0.196 -0.164,0.387 -0.25,0.574 -0.087,0.186 -0.174,0.357 -0.262,0.513 l -0.533,-2.227 h -0.546 l 0.731,3.05 h 0.445 c 0.082,-0.133 0.168,-0.284 0.257,-0.454 0.09,-0.17 0.177,-0.348 0.262,-0.534 0.085,-0.187 0.167,-0.374 0.246,-0.561 0.079,-0.188 0.147,-0.365 0.206,-0.533 l 0.489,2.082 h 0.55 l -0.73,-3.05 h -0.446" />
      <path
         id="path150"
         style="fill:#393536;fill-opacity:1;fill-rule:nonzero;stroke:none;stroke-width:0.1"
         d="m 313.787,350.028 0.112,-0.01 c 0.043,-0.002 0.11,-0.003 0.201,-0.003 0.211,0 0.402,0.034 0.572,0.101 0.17,0.068 0.314,0.164 0.432,0.289 0.12,0.124 0.211,0.274 0.276,0.449 0.064,0.174 0.097,0.368 0.097,0.582 0,0.232 -0.067,0.416 -0.199,0.55 -0.132,0.135 -0.347,0.203 -0.646,0.203 l -0.183,-0.004 -0.147,-0.014 z m 2.262,1.426 c 0,-0.273 -0.044,-0.527 -0.133,-0.761 -0.088,-0.235 -0.218,-0.437 -0.392,-0.607 -0.172,-0.17 -0.388,-0.304 -0.648,-0.401 -0.26,-0.097 -0.562,-0.145 -0.904,-0.145 -0.123,0 -0.261,0.006 -0.414,0.02 -0.153,0.013 -0.293,0.034 -0.422,0.063 l 0.708,2.953 c 0.143,0.033 0.289,0.053 0.435,0.064 0.148,0.01 0.283,0.015 0.406,0.015 0.222,0 0.419,-0.028 0.589,-0.086 0.17,-0.057 0.313,-0.137 0.427,-0.241 0.114,-0.105 0.2,-0.231 0.26,-0.379 0.059,-0.148 0.088,-0.313 0.088,-0.495" />
      <path
         id="path152"
         style="fill:#393536;fill-opacity:1;fill-rule:nonzero;stroke:none;stroke-width:0.1"
         d="m 318.362,349.575 0.731,3.05 h 1.879 l -0.11,-0.462 h -1.33 l -0.192,-0.792 h 1.179 l -0.11,-0.458 h -1.169 l -0.323,-1.338 h -0.555" />
      <path
         id="path154"
         style="fill:#393536;fill-opacity:1;fill-rule:nonzero;stroke:none;stroke-width:0.1"
         d="m 323.388,351.767 c 0,0.161 -0.059,0.272 -0.176,0.331 -0.117,0.061 -0.274,0.091 -0.471,0.091 l -0.132,-0.004 -0.141,-0.014 -0.238,-0.994 h 0.248 c 0.131,0 0.252,0.011 0.364,0.033 0.112,0.022 0.208,0.056 0.289,0.103 l 0.188,0.183 c 0.046,0.075 0.069,0.165 0.069,0.271 z m -0.55,0.888 c 0.363,0 0.64,-0.075 0.829,-0.226 0.189,-0.152 0.284,-0.352 0.284,-0.601 0,-0.112 -0.015,-0.217 -0.046,-0.319 -0.031,-0.101 -0.08,-0.195 -0.145,-0.282 -0.067,-0.086 -0.152,-0.163 -0.255,-0.231 -0.105,-0.067 -0.231,-0.123 -0.377,-0.167 0.038,-0.067 0.079,-0.149 0.123,-0.244 0.044,-0.095 0.09,-0.198 0.137,-0.308 0.047,-0.11 0.092,-0.225 0.136,-0.345 0.044,-0.121 0.083,-0.239 0.119,-0.357 h -0.583 c -0.036,0.106 -0.073,0.213 -0.111,0.321 -0.038,0.109 -0.078,0.214 -0.119,0.315 -0.041,0.101 -0.083,0.197 -0.126,0.286 l -0.126,0.24 -0.097,-0.005 h -0.101 -0.255 l -0.276,-1.157 h -0.556 l 0.718,3.005 c 0.14,0.03 0.283,0.049 0.428,0.06 0.146,0.01 0.279,0.015 0.399,0.015" />
      <path
         id="path156"
         style="fill:#393536;fill-opacity:1;fill-rule:nonzero;stroke:none;stroke-width:0.1"
         d="m 326.472,352.215 c -0.167,0 -0.319,-0.042 -0.455,-0.125 -0.137,-0.084 -0.253,-0.193 -0.35,-0.328 -0.097,-0.135 -0.173,-0.289 -0.227,-0.46 -0.054,-0.172 -0.082,-0.345 -0.082,-0.521 0,-0.241 0.052,-0.433 0.155,-0.576 0.102,-0.144 0.266,-0.216 0.493,-0.216 0.167,0 0.319,0.042 0.457,0.125 0.138,0.084 0.256,0.193 0.352,0.328 0.097,0.135 0.172,0.288 0.227,0.46 0.054,0.171 0.081,0.345 0.081,0.521 0,0.241 -0.052,0.433 -0.156,0.577 -0.104,0.143 -0.269,0.215 -0.495,0.215 z m -0.524,-2.706 c -0.17,0 -0.326,0.027 -0.469,0.082 -0.141,0.054 -0.265,0.132 -0.369,0.235 -0.104,0.103 -0.184,0.23 -0.242,0.383 -0.057,0.152 -0.086,0.327 -0.086,0.523 0,0.235 0.038,0.47 0.114,0.704 0.077,0.235 0.189,0.445 0.337,0.632 0.149,0.186 0.331,0.337 0.548,0.453 0.217,0.116 0.467,0.174 0.748,0.174 0.17,0 0.327,-0.027 0.471,-0.082 0.144,-0.054 0.267,-0.133 0.369,-0.235 0.104,-0.103 0.183,-0.23 0.24,-0.383 0.058,-0.152 0.086,-0.327 0.086,-0.523 0,-0.235 -0.038,-0.47 -0.114,-0.704 -0.076,-0.235 -0.188,-0.446 -0.335,-0.632 -0.146,-0.186 -0.329,-0.337 -0.548,-0.453 -0.218,-0.115 -0.468,-0.174 -0.75,-0.174" />
      <path
         id="path158"
         style="fill:#393536;fill-opacity:1;fill-rule:nonzero;stroke:none;stroke-width:0.1"
         d="m 330.422,349.575 c -0.056,0.17 -0.119,0.354 -0.191,0.55 -0.072,0.197 -0.148,0.393 -0.228,0.59 -0.08,0.196 -0.164,0.387 -0.25,0.574 -0.087,0.186 -0.174,0.357 -0.262,0.513 l -0.533,-2.227 h -0.546 l 0.731,3.05 h 0.445 c 0.082,-0.133 0.168,-0.284 0.257,-0.454 0.09,-0.17 0.176,-0.348 0.261,-0.534 0.085,-0.187 0.167,-0.374 0.247,-0.561 0.079,-0.188 0.147,-0.365 0.206,-0.533 l 0.489,2.082 h 0.55 l -0.73,-3.05 h -0.446" />
      <path
         id="path160"
         style="fill:#393536;fill-opacity:1;fill-rule:nonzero;stroke:none;stroke-width:0.1"
         d="m 334.994,352.625 -0.115,-0.467 h -0.906 l -0.62,-2.583 h -0.555 l 0.621,2.583 h -0.907 l 0.11,0.467 h 2.372" />
      <path
         id="path162"
         style="fill:#393536;fill-opacity:1;fill-rule:nonzero;stroke:none;stroke-width:0.1"
         d="m 335.975,352.625 h 0.554 l -0.73,-3.05 h -0.555 l 0.731,3.05" />
      <path
         id="path164"
         style="fill:#393536;fill-opacity:1;fill-rule:nonzero;stroke:none;stroke-width:0.1"
         d="m 337.058,349.575 0.73,3.05 h 1.893 l -0.111,-0.462 h -1.342 l -0.183,-0.766 h 1.191 l -0.11,-0.454 h -1.184 l -0.219,-0.906 h 1.443 l -0.11,-0.462 h -1.998" />
      <path
         id="path166"
         style="fill:#393536;fill-opacity:1;fill-rule:nonzero;stroke:none;stroke-width:0.1"
         d="m 342.223,351.767 c 0,0.161 -0.059,0.272 -0.176,0.331 -0.117,0.061 -0.275,0.091 -0.471,0.091 l -0.132,-0.004 -0.141,-0.014 -0.238,-0.994 h 0.248 c 0.131,0 0.252,0.011 0.364,0.033 0.112,0.022 0.208,0.056 0.289,0.103 l 0.188,0.183 c 0.046,0.075 0.069,0.165 0.069,0.271 z m -0.55,0.888 c 0.363,0 0.64,-0.075 0.829,-0.226 0.189,-0.152 0.284,-0.352 0.284,-0.601 0,-0.112 -0.015,-0.217 -0.046,-0.319 -0.031,-0.101 -0.08,-0.195 -0.145,-0.282 -0.067,-0.086 -0.152,-0.163 -0.255,-0.231 -0.105,-0.067 -0.231,-0.123 -0.377,-0.167 0.038,-0.067 0.079,-0.149 0.123,-0.244 0.044,-0.095 0.09,-0.198 0.137,-0.308 0.047,-0.11 0.092,-0.225 0.136,-0.345 0.044,-0.121 0.083,-0.239 0.119,-0.357 h -0.583 c -0.036,0.106 -0.073,0.213 -0.111,0.321 -0.038,0.109 -0.078,0.214 -0.119,0.315 -0.041,0.101 -0.083,0.197 -0.126,0.286 l -0.126,0.24 -0.097,-0.005 h -0.101 -0.255 l -0.276,-1.157 h -0.556 l 0.718,3.005 c 0.14,0.03 0.283,0.049 0.428,0.06 0.146,0.01 0.279,0.015 0.399,0.015" />
      <path
         id="path168"
         style="fill:#393536;fill-opacity:1;fill-rule:nonzero;stroke:none;stroke-width:0.1"
         d="m 344.207,349.98 0.235,0.022 0.211,0.075 0.153,0.143 c 0.038,0.06 0.056,0.135 0.056,0.226 l -0.044,0.174 -0.118,0.13 -0.17,0.108 -0.2,0.108 -0.218,0.129 -0.182,0.165 -0.125,0.216 c -0.032,0.082 -0.047,0.179 -0.047,0.291 0,0.135 0.026,0.258 0.077,0.371 0.052,0.113 0.128,0.21 0.228,0.293 0.102,0.082 0.227,0.147 0.375,0.194 0.148,0.046 0.321,0.07 0.517,0.07 0.091,0 0.178,-0.007 0.262,-0.022 l 0.235,-0.055 0.194,-0.073 0.131,-0.075 -0.241,-0.422 c -0.061,0.05 -0.147,0.093 -0.258,0.128 -0.11,0.035 -0.231,0.053 -0.363,0.053 l -0.227,-0.025 -0.188,-0.075 -0.128,-0.131 -0.046,-0.192 0.032,-0.167 0.093,-0.117 0.139,-0.092 0.172,-0.095 c 0.091,-0.05 0.176,-0.099 0.257,-0.149 l 0.213,-0.172 0.148,-0.222 c 0.036,-0.084 0.055,-0.184 0.055,-0.302 0,-0.164 -0.032,-0.308 -0.093,-0.431 -0.062,-0.123 -0.148,-0.225 -0.259,-0.305 -0.112,-0.081 -0.244,-0.142 -0.396,-0.183 -0.153,-0.041 -0.32,-0.062 -0.502,-0.062 -0.121,0 -0.231,0.009 -0.332,0.027 -0.101,0.017 -0.192,0.039 -0.271,0.066 l -0.204,0.083 -0.135,0.079 0.247,0.436 0.116,-0.071 0.165,-0.072 0.203,-0.055 0.233,-0.022" />
      <path
         id="path170"
         style="fill:#0994dc;fill-opacity:1;fill-rule:nonzero;stroke:none;stroke-width:0.1"
         d="m 303.625,371.832 c -0.114,0.643 -0.439,1.152 -0.974,1.527 -0.536,0.374 -1.296,0.637 -2.285,0.789 -0.987,0.152 -2.249,0.229 -3.784,0.229 h -3.544 c -1.554,0 -2.847,-0.1 -3.876,-0.295 -1.032,-0.197 -1.871,-0.5 -2.521,-0.911 -0.649,-0.411 -1.15,-0.932 -1.502,-1.566 -0.354,-0.635 -0.629,-1.389 -0.825,-2.262 l -0.156,-0.697 h 3.958 c 0.199,0.821 0.646,1.367 1.339,1.634 0.693,0.266 1.716,0.402 3.068,0.402 h 3.042 c 0.795,0 1.447,-0.018 1.955,-0.053 0.506,-0.038 0.898,-0.118 1.176,-0.242 0.277,-0.125 0.45,-0.295 0.523,-0.51 0.07,-0.214 0.067,-0.508 -0.015,-0.882 -0.083,-0.375 -0.191,-0.679 -0.327,-0.911 -0.135,-0.232 -0.316,-0.406 -0.545,-0.521 -0.228,-0.117 -0.517,-0.197 -0.864,-0.243 -0.349,-0.044 -0.778,-0.066 -1.284,-0.066 h -5.079 l -0.822,-3.722 h 5.16 c 0.423,0 0.787,-0.026 1.089,-0.08 0.301,-0.053 0.547,-0.151 0.736,-0.294 0.189,-0.144 0.308,-0.352 0.359,-0.629 0.05,-0.277 0.027,-0.629 -0.066,-1.059 -0.093,-0.427 -0.223,-0.771 -0.391,-1.03 -0.166,-0.259 -0.405,-0.46 -0.717,-0.602 -0.31,-0.143 -0.713,-0.236 -1.207,-0.281 -0.492,-0.045 -1.105,-0.068 -1.836,-0.068 h -2.779 -0.836 c -0.594,0 -1.112,0.014 -1.557,0.041 -0.444,0.027 -0.802,0.093 -1.076,0.2 -0.271,0.108 -0.46,0.277 -0.56,0.51 -0.102,0.231 -0.105,0.562 -0.01,0.99 h -4.096 l -0.078,-0.348 c -0.207,-0.928 -0.274,-1.718 -0.199,-2.369 0.074,-0.652 0.355,-1.178 0.844,-1.581 0.488,-0.401 1.208,-0.691 2.164,-0.869 0.954,-0.179 2.205,-0.268 3.752,-0.268 h 3.875 c 0.479,0 0.923,0.01 1.352,0.023 0.247,0.007 0.487,0.016 0.718,0.029 0.129,0.007 0.252,0.016 0.375,0.024 0.176,0.011 0.347,0.024 0.514,0.039 0.098,0.008 0.197,0.015 0.291,0.025 0.254,0.026 0.5,0.055 0.726,0.088 1.035,0.151 1.874,0.432 2.516,0.843 0.641,0.411 1.136,0.968 1.484,1.673 0.348,0.705 0.643,1.611 0.883,2.718 0.182,0.839 0.253,1.522 0.215,2.048 -0.039,0.527 -0.165,0.941 -0.379,1.245 -0.213,0.304 -0.505,0.522 -0.873,0.657 -0.369,0.133 -0.802,0.227 -1.299,0.28 0.584,0.036 1.095,0.107 1.532,0.215 0.439,0.106 0.82,0.302 1.145,0.589 0.325,0.285 0.599,0.673 0.824,1.164 0.224,0.491 0.424,1.137 0.598,1.941 0.212,0.982 0.262,1.794 0.149,2.436" />
      <path
         id="path172"
         style="fill:#393536;fill-opacity:1;fill-rule:nonzero;stroke:none;stroke-width:0.1"
         d="m 318.876,374.403 h -11.531 l -0.814,-3.756 h 7.365 l -3.136,-14.733 h 4.211 l 3.905,18.489" />
      <path
         id="path174"
         style="fill:#393536;fill-opacity:1;fill-rule:nonzero;stroke:none;stroke-width:0.1"
         d="m 320.373,374.403 -0.791,-3.756 h 5.281 l 0.782,3.756 h -5.272" />
      <path
         id="path176"
         style="fill:#393536;fill-opacity:1;fill-rule:nonzero;stroke:none;stroke-width:0.1"
         d="m 341.896,363.854 -6.501,10.549 h -6.249 l -3.839,-18.489 h 4.213 l 2.847,13.827 8.117,-12.771 1.412,6.884" />
      <path
         id="path178"
         style="fill:#393536;fill-opacity:1;fill-rule:nonzero;stroke:none;stroke-width:0.1"
         d="m 345.645,374.403 -3.707,-18.489 h 4.222 l 3.692,18.489 h -4.207" />
      <path
         id="path180"
         style="fill:#393536;fill-opacity:1;fill-rule:nonzero;stroke:none;stroke-width:0.1"
         d="m 280.412,372.782 c -0.103,0.133 -0.219,0.256 -0.346,0.37 -0.423,0.39 -0.972,0.683 -1.651,0.876 -0.88,0.249 -2.004,0.375 -3.371,0.375 h -12.43 l -0.859,-3.687 11.787,-0.007 c 0.761,0 1.369,-0.072 1.827,-0.215 0.457,-0.142 0.799,-0.371 1.024,-0.683 l 0.101,-0.174 0.092,-0.209 0.016,-0.041 0.058,-0.202 0.02,-0.108 0.027,-0.175 c 0.01,-0.103 0.016,-0.209 0.016,-0.322 l -0.002,-0.031 v 0.001 c -0.008,-0.504 -0.092,-1.104 -0.25,-1.805 l -0.704,-3.105 c -0.183,-0.804 -0.385,-1.468 -0.606,-1.994 -0.222,-0.527 -0.513,-0.947 -0.871,-1.26 -0.359,-0.311 -0.805,-0.535 -1.336,-0.669 -0.496,-0.105 -1.196,-0.177 -1.887,-0.177 h -7.262 l -0.003,-0.027 -0.404,0.003 2.239,9.78 H 261.4 l -3.121,-13.501 h 4.781 1.686 6.491 c 0.649,0 1.81,0.097 1.808,0.103 0.635,0.06 1.262,0.18 1.572,0.259 0.963,0.241 1.782,0.651 2.457,1.231 0.675,0.58 1.238,1.361 1.688,2.342 0.451,0.982 0.842,2.214 1.176,3.695 l 0.808,3.589 c 0.311,1.374 0.444,2.534 0.404,3.48 -0.041,0.946 -0.286,1.708 -0.738,2.288" />
    </g>
  </g>
</svg>
